# xmcd CD Database Entry
#
# Track frame offsets:
# 150
# 16166
# 37953
# 52460
# 70433
# 90785
# 111796
# 129436
# 150686
# 169796
# 194527
# 212505
#
# Disc length: 3064 seconds
#
# Revision: 3
# Processed by: cddbd v1.4PL0 Copyright (c) Steve Scherf et al.
# Submitted via: tcd 2.0b
#
DISCID=9e0bf60c
DTITLE=Aquafresh - BG Lqto
DYEAR=1900
DGENRE=
TTITLE0=KGB - Rozov Kadilak
TTITLE1=Django Ze - Naj-krasivata kartina
TTITLE2=Skoda - Na svetlo
TTITLE3=Stoqn Mihalev - Myrtvi Iskri
TTITLE4=Sofi Marinowa i Edelina Kynewa - Swetica i Greshnica
TTITLE5=Portokal - Ti
TTITLE6=Undo - Samo Ti Ne Razbra
TTITLE7=Edeleina Kynewa i Orlin Goranow - Otkrovenie
TTITLE8=Stoqn Petrov - Kato magnit
TTITLE9=Monolit - Pylnolunie
TTITLE10=Skoda - Lifestyle
TTITLE11=Skoda - Blue Cartoon
EXTD=
EXTT0=
EXTT1=
EXTT2=
EXTT3=
EXTT4=
EXTT5=
EXTT6=
EXTT7=
EXTT8=
EXTT9=
EXTT10=
EXTT11=
PLAYORDER=
